M48
; DRILL file {KiCad 8.0.8} date 2025-01-28T02:14:56+0900
; FORMAT={-:-/ absolute / inch / decimal}
; #@! TF.CreationDate,2025-01-28T02:14:56+09:00
; #@! TF.GenerationSoftware,Kicad,Pcbnew,8.0.8
; #@! TF.FileFunction,Plated,1,2,PTH
FMAT,2
INCH
; #@! TA.AperFunction,Plated,PTH,ComponentDrill
T1C0.0300
; #@! TA.AperFunction,Plated,PTH,ComponentDrill
T2C0.0315
; #@! TA.AperFunction,Plated,PTH,ComponentDrill
T3C0.0394
%
G90
G05
T1
X1.0Y1.1
X1.0Y0.4
X1.1Y1.1
X1.1Y0.4
X1.2Y1.1
X1.2Y0.4
X1.3Y1.1
X1.3Y0.4
X1.4Y1.1
X1.4Y0.4
X1.5Y1.1
X1.5Y0.4
X1.6Y1.1
X1.6Y0.4
X1.7Y1.1
X1.7Y0.4
X2.7Y1.5
X2.7Y0.9
X2.8Y1.5
X2.8Y0.9
X2.9Y1.5
X2.9Y0.9
X3.0Y1.5
X3.0Y0.9
X3.1Y1.5
X3.1Y0.9
X3.2Y1.5
X3.2Y0.9
X3.3Y1.5
X3.3Y0.9
X3.4Y1.5
X3.4Y0.9
X3.5Y1.5
X3.5Y0.9
T2
X1.8Y1.0
X1.8Y0.9
X1.9Y1.8
X1.9Y1.5
X2.0Y1.8
X2.0Y1.5
X2.1Y1.8
X2.1Y1.5
X2.1Y1.0
X2.1Y0.9
T3
X0.74Y2.0
X0.84Y2.0
X0.94Y2.0
X1.04Y2.0
X1.1Y1.7
X1.1Y1.6
X1.1Y1.5
X1.1Y0.1
X1.14Y2.0
X1.2Y1.7
X1.2Y1.6
X1.2Y1.5
X1.2Y1.3
X1.2Y0.1
X1.24Y2.0
X1.3Y1.7
X1.3Y1.6
X1.3Y1.5
X1.3Y1.3
X1.3Y0.1
X1.34Y2.0
X1.4Y1.7
X1.4Y1.6
X1.4Y1.5
X1.4Y0.1
X1.44Y2.0
X1.5Y1.7
X1.5Y1.6
X1.5Y1.5
X1.5Y0.1
X1.54Y2.0
X1.6Y1.7
X1.6Y1.6
X1.6Y1.5
X1.6Y0.1
X1.64Y2.0
X1.7Y1.7
X1.7Y1.6
X1.7Y1.5
X1.7Y0.1
X1.8Y2.0
X1.8Y1.3
X1.8Y0.1
X1.9Y2.0
X1.9Y1.3
X2.0Y2.0
X2.0Y1.3
X2.0Y0.5
X2.0Y0.1
X2.1Y2.0
X2.1Y1.3
X2.1Y0.5
X2.1Y0.1
X2.2Y2.0
X2.2Y0.5
X2.2Y0.1
X2.3Y2.0
X2.3Y0.5
X2.3Y0.1
X2.4Y2.0
X2.4Y0.5
X2.4Y0.1
X2.5Y2.0
X2.5Y0.5
X2.5Y0.1
X2.6Y0.5
X2.6Y0.1
X2.7Y2.0
X2.7Y0.5
X2.7Y0.1
X2.8Y2.0
X2.8Y0.5
X2.9Y2.0
X2.9Y0.5
X2.9Y0.1
X3.0Y2.0
X3.0Y0.7
X3.0Y0.1
X3.1Y2.0
X3.1Y0.7
X3.1Y0.1
X3.2Y2.0
X3.2Y0.1
X3.3Y2.0
X3.3Y0.7
X3.3Y0.1
X3.4Y2.0
X3.4Y0.7
X3.4Y0.1
X3.5Y0.1
X3.6Y0.1
X3.7Y2.0
X3.7Y1.9
X3.7Y1.8
X3.7Y1.7
X3.7Y1.6
X3.7Y1.5
X3.7Y1.4
X3.7Y1.3
X3.7Y1.2
X3.7Y1.1
X3.7Y1.0
X3.7Y0.9
X3.7Y0.8
X3.7Y0.7
X3.7Y0.6
X3.7Y0.5
X3.7Y0.4
X3.7Y0.3
X3.8Y2.0
X3.8Y1.9
X3.8Y1.8
X3.8Y1.7
X3.8Y1.6
X3.8Y1.5
X3.8Y1.4
X3.8Y1.3
X3.8Y1.2
X3.8Y1.1
X3.8Y1.0
X3.8Y0.9
X3.8Y0.8
X3.8Y0.7
X3.8Y0.6
X3.8Y0.5
X3.8Y0.4
X3.8Y0.3
T3
G00X0.1638Y0.3394
M15
G01X0.1638Y0.2606
M16
G05
G00X0.2425Y0.115
M15
G01X0.3213Y0.115
M16
G05
G00X0.4Y0.3394
M15
G01X0.4Y0.2606
M16
G05
M30
